<?xml version="1.0" encoding="utf-8"?>
<!-- Generator: Adobe Illustrator 20.1.0, SVG Export Plug-In . SVG Version: 6.00 Build 0)  -->
<svg version="1.1" id="Layer_1" xmlns="http://www.w3.org/2000/svg" xmlns:xlink="http://www.w3.org/1999/xlink" x="0px" y="0px"
	 viewBox="0 0 155.9 155.9" style="enable-background:new 0 0 155.9 155.9;" xml:space="preserve">
<style type="text/css">
	.st0{fill:#08C360;}
</style>
<g>
	<path class="st0" d="M139,55.8c2.5,6.9,3.9,14.4,3.9,22.2c0,35.8-29.1,65-65,65s-65-29.1-65-65s29.1-65,65-65
		c14.2,0,27.4,4.6,38.1,12.4l7.9-10.4C111,5.6,95.1,0,78,0C34.9,0,0,34.9,0,78s34.9,78,78,78s78-34.9,78-78
		c0-12.7-3.1-24.7-8.4-35.3L139,55.8z"/>
</g>
<path class="st0" d="M34.4,83.8l35.1,40.1c2.2,2.2,4.5,3.7,8,3.7c0.3,0,0.6,0,0.9,0c4.1-0.3,6.4-1.4,8.7-4.7l61.6-94.9
	c3.1-4.4,2-10.6-2.4-13.7l-0.7-0.5c-1.7-1.2-3.7-1.8-5.6-1.8c-3.1,0-6.1,1.5-8.1,4.2L75.4,90L48.5,69.7c-1.9-1.9-4.5-2.9-7-2.9
	c-2.5,0-5.1,1-7,2.9l0,0C30.5,73.7,30.5,79.9,34.4,83.8z"/>
</svg>
