<?xml version="1.0" encoding="utf-8"?>
<!-- Generator: Adobe Illustrator 20.1.0, SVG Export Plug-In . SVG Version: 6.00 Build 0)  -->
<svg version="1.1" id="Rectangle_1_1_" xmlns="http://www.w3.org/2000/svg" xmlns:xlink="http://www.w3.org/1999/xlink" x="0px"
	 y="0px" viewBox="0 0 1440 135" style="enable-background:new 0 0 1440 135;" xml:space="preserve">
<style type="text/css">
	.st0{fill-rule:evenodd;clip-rule:evenodd;fill:#FFFFFF;}
</style>
<path class="st0" d="M208.6,59.8c-25.9-17-56.8-26.8-90.1-26.8c-27.7,0-53.8,6.9-76.7,19C29.3,41.4,15.2,32.6,0,26.1V135h1440V26.1
	c-19.8-8.5-41.6-13.1-64.5-13.1c-64.1,0-119.7,36.7-146.8,90.3c-19.2-14.6-43.2-23.3-69.2-23.3c-39.7,0-74.7,20.2-95.2,50.9
	C1041.7,73.6,985.8,33,920.5,33c-41.6,0-79.3,16.4-107.1,43.2C791.1,49.8,757.8,33,720.5,33c-52.9,0-98,33.9-114.6,81.1
	C584.1,93.6,554.8,81,522.5,81c-14.5,0-28.4,2.5-41.2,7.2C453.7,35.8,398.8,0,335.5,0C284.4,0,238.7,23.3,208.6,59.8z"/>
</svg>
