<?xml version="1.0" encoding="utf-8"?>
<!-- Generator: Adobe Illustrator 20.1.0, SVG Export Plug-In . SVG Version: 6.00 Build 0)  -->
<svg version="1.1" id="Layer_1" xmlns="http://www.w3.org/2000/svg" xmlns:xlink="http://www.w3.org/1999/xlink" x="0px" y="0px"
	 viewBox="0 0 334.6 359.6" style="enable-background:new 0 0 334.6 359.6;" xml:space="preserve">
<path d="M322.3,161.7L322.3,161.7c-16.8-16.8-44-16.8-60.8,0l-51,51V43c0-23.7-19.3-43-43-43h0c-23.7,0-43,19.3-43,43v169.7l-51-51
	c-16.8-16.8-44-16.8-60.8,0l0,0c-16.8,16.8-16.8,44,0,60.8L137,347c0.5,0.5,1,1,1.5,1.5c0.2,0.2,0.5,0.4,0.8,0.7
	c0.3,0.2,0.6,0.5,0.8,0.7c0.3,0.3,0.7,0.5,1,0.8c0.2,0.2,0.4,0.3,0.6,0.5c0.1,0.1,0.1,0.1,0.2,0.2c0.3,0.2,0.6,0.4,0.9,0.6
	c0.2,0.1,0.4,0.3,0.6,0.4c0.4,0.3,0.8,0.5,1.2,0.8c0.2,0.1,0.4,0.3,0.6,0.4c0.4,0.2,0.8,0.5,1.2,0.7c0.2,0.1,0.4,0.3,0.7,0.4
	c0.1,0.1,0.2,0.1,0.3,0.2c0.3,0.1,0.5,0.3,0.8,0.4c0.3,0.1,0.5,0.3,0.8,0.4c0.3,0.2,0.7,0.3,1,0.5c0.3,0.1,0.6,0.3,0.9,0.4
	c0.1,0,0.2,0.1,0.3,0.1c0.2,0.1,0.4,0.2,0.7,0.2c0.4,0.1,0.7,0.3,1.1,0.4c0.3,0.1,0.5,0.2,0.8,0.3c0.4,0.1,0.8,0.3,1.2,0.4
	c0.2,0.1,0.5,0.1,0.7,0.2c0.4,0.1,0.9,0.2,1.3,0.4c0.2,0.1,0.5,0.1,0.7,0.2c0.5,0.1,0.9,0.2,1.4,0.3c0.2,0,0.5,0.1,0.7,0.1
	c0.5,0.1,0.9,0.2,1.4,0.2c0.3,0,0.5,0.1,0.8,0.1c0.4,0.1,0.8,0.1,1.3,0.2c0.4,0,0.7,0.1,1.1,0.1c0.3,0,0.7,0.1,1,0.1
	c0.7,0,1.4,0.1,2.1,0.1c0,0,0,0,0,0h0c0,0,0,0,0,0c0.7,0,1.4,0,2.1-0.1c0.3,0,0.7,0,1-0.1c0.4,0,0.7,0,1.1-0.1
	c0.4,0,0.8-0.1,1.3-0.2c0.3,0,0.5-0.1,0.8-0.1c0.5-0.1,0.9-0.1,1.4-0.2c0.2,0,0.5-0.1,0.7-0.1c0.5-0.1,0.9-0.2,1.4-0.3
	c0.2-0.1,0.5-0.1,0.7-0.2c0.4-0.1,0.9-0.2,1.3-0.4c0.2-0.1,0.5-0.1,0.7-0.2c0.4-0.1,0.8-0.3,1.2-0.4c0.3-0.1,0.5-0.2,0.8-0.3
	c0.4-0.1,0.7-0.3,1.1-0.4c0.2-0.1,0.4-0.2,0.7-0.2c0.1,0,0.2-0.1,0.3-0.1c0.3-0.1,0.6-0.3,0.9-0.4c0.3-0.2,0.7-0.3,1-0.5
	c0.3-0.1,0.5-0.3,0.8-0.4c0.3-0.1,0.5-0.3,0.8-0.4c0.1-0.1,0.2-0.1,0.3-0.2c0.2-0.1,0.4-0.2,0.7-0.4c0.4-0.2,0.8-0.4,1.2-0.7
	c0.2-0.1,0.4-0.2,0.6-0.4c0.4-0.2,0.8-0.5,1.2-0.8c0.2-0.1,0.4-0.3,0.6-0.4c0.3-0.2,0.6-0.4,0.9-0.6c0.1-0.1,0.1-0.1,0.2-0.2
	c0.2-0.2,0.4-0.3,0.6-0.5c0.3-0.3,0.7-0.5,1-0.8c0.3-0.2,0.6-0.5,0.8-0.7c0.3-0.2,0.5-0.4,0.8-0.7c0.5-0.5,1-1,1.5-1.5l124.4-124.4
	C339.1,205.7,339.1,178.5,322.3,161.7z"/>
</svg>
