<?xml version="1.0" encoding="utf-8"?>
<!-- Generator: Adobe Illustrator 20.1.0, SVG Export Plug-In . SVG Version: 6.00 Build 0)  -->
<svg version="1.1" id="Isolation_Mode" xmlns="http://www.w3.org/2000/svg" xmlns:xlink="http://www.w3.org/1999/xlink" x="0px"
	 y="0px" viewBox="0 0 161.7 106.5" style="enable-background:new 0 0 161.7 106.5;" xml:space="preserve">
<style type="text/css">
	.st0{fill:#FFFFFF;}
</style>
<path class="st0" d="M161.7,99.3h-11.9c-1.6,0-3.1,0-4.7,0c-2.3-0.1-3.7-1.9-2.9-3.9c0.5-1.2,1.7-1.9,2.9-1.8c2.4,0,4.8,0,7.2,0.1
	h3.7v-1.1c0-9.2,0-18.3,0-27.5c-0.1-12.7-8.7-23.8-20.9-27.1l-0.6-0.2c-2-0.5-2-0.5-1.9-2.6c0.4-7.1-2.1-14.1-6.8-19.5
	c-10.1-11.9-28-13.4-39.9-3.2c-2.2,1.9-4.1,4-5.6,6.5l-1.7,2.7c-1.7-1.4-3.3-2.8-5-4c-12.8-8.9-30.4-5.7-39.3,7.1
	c-2.3,3.3-3.8,6.9-4.5,10.8c-0.1,1.2-1,2.1-2.1,2.2C15.8,40.8,8.4,48.4,6.2,60.3C3.3,75.5,13.4,90.2,28.6,93c0.1,0,0.2,0,0.2,0
	c4.2,0.5,8.4,0.7,12.7,0.4l-2.7-2.7c-0.8-0.7-1.1-1.9-0.8-2.9c0.4-1.4,1.9-2.3,3.3-1.9c0.4,0.1,0.8,0.3,1.1,0.6
	c2.7,2.5,5.3,5.2,7.8,7.8c1,1,1,2.6,0,3.6c-2.6,2.7-5.2,5.3-7.8,7.8c-1.1,1-2.8,0.9-3.8-0.2c0,0,0,0,0,0c-1-1.1-0.9-2.7,0.2-3.7
	c0.8-0.8,1.6-1.7,2.4-2.6h-0.8c-3,0-6,0-8.9-0.2C15.2,98,2.1,85.4,0.2,69.2C-1.7,53.2,8,38,23.4,33c0.7-0.2,1.2-0.7,1.4-1.5
	C29,18.1,38.1,9.9,51.9,7.3c8.9-1.7,17.2,0.4,24.7,5.4l0.5,0.4c0,0,0.1,0,0.1,0c1.3-1.3,2.5-2.7,3.8-4c5.6-5.3,12.9-8.5,20.6-9
	c16.5-1.3,31.6,9.5,35.6,25.6c0.5,2.2,0.8,4.3,1,6.5c0,0.4,0.3,0.8,0.7,0.9c9.8,3.4,17.6,11.1,20.9,21c1.2,3.4,1.9,6.9,1.9,10.5
	c0,11.3,0,22.7,0,34C161.7,98.8,161.7,99,161.7,99.3z"/>
<path class="st0" d="M80.1,71.9c1.1-3.4,2-6.7,3.1-9.9c0.1-0.4,0.3-1,0.6-1.1c0.7-0.1,1.5-0.1,2.2,0c0.1,0,0.2,0.3,0.3,0.5
	c1.1,3.4,2.1,6.8,3.3,10.4c0.1-0.4,0.2-0.8,0.3-1.1c0.8-2.7,1.6-5.5,2.4-8.2c0.4-1.5,0.8-1.8,2.4-1.8h1.4v2.3
	c-0.9,0-1.2,0.6-1.4,1.4c-1.1,3.3-2.2,6.6-3.2,9.9c-0.1,0.5-0.5,0.8-1,0.8c-2.3,0-2.3,0-3-2.2c-0.9-2.7-1.7-5.3-2.6-8.1
	c-0.1,0.2-0.2,0.4-0.3,0.6c-1,3-1.9,5.9-2.8,8.9c-0.1,0.5-0.5,0.8-1,0.7c-2.3,0-2.3,0-3.1-2.2c-0.9-2.8-1.9-5.7-2.8-8.6
	c-0.1-0.8-0.9-1.4-1.7-1.3c-0.1,0-0.1,0-0.2,0c-0.9,0.1-1.8,0-2.8,0c0,2.5-0.1,4.9,0,7.3c0.1,1.6,1.3,2.3,3.5,2.3V75
	c-2.6,0.6-6.1-0.6-6.3-4.2c-0.1-2.3-0.1-4.6-0.1-6.8c0-0.7-0.2-1-0.9-1c-1.1,0.1-2.2,0-3.3,0c-0.7,0-0.8,0.2-0.8,0.8
	c0,3.4,0,6.8,0,10.1c0,0.3,0,0.7,0,1h-2.8V63h-1.7v-2.2h1.6c0.1-1.9,0.3-3.8,2.1-4.9c1.3-0.8,2.9-1.1,4.4-0.8v2.3c-1.1,0-2.3,0-3,1
	c-0.4,0.7-0.7,1.5-0.8,2.3h5.3V57h2.8v3.8h4.5c1.8,0,2.2,0.2,2.7,2L80.1,71.9z"/>
<path class="st0" d="M132.6,95.4v3c-1.3,0-2.6,0-3.8,0c-0.9,0-1.3-0.7-1.4-1.7c-1.3,1.7-3.4,2.5-5.5,2c-2.5-0.4-4.5-2.3-5-4.7
	c-0.5-1.8-0.5-3.6,0-5.4c1.3-4.6,6.3-6.3,10.3-3.4c0-1.1,0-2.1,0-3.2c0-0.2-0.3-0.4-0.6-0.4c-0.4,0-0.7,0-1.1,0v-3.1
	c1.3,0,2.7-0.1,4,0c0.9,0,1.3,0.8,1.3,1.9c0,4.4,0,8.9,0,13.3c0,0.2,0,0.4,0,0.6c-0.1,0.8,0.2,1.2,1,1.1
	C132.1,95.3,132.4,95.3,132.6,95.4z M120.3,91.1c0.1,0.7,0.2,1.3,0.3,2c0.4,1.8,2.1,2.9,3.9,2.6c1.3-0.3,2.3-1.2,2.6-2.5
	c0.4-1.3,0.4-2.8-0.2-4.1c-0.6-1.7-2.5-2.6-4.2-2c-0.9,0.3-1.6,1-2,1.9C120.6,89.7,120.4,90.4,120.3,91.1L120.3,91.1z"/>
<path class="st0" d="M76.5,84.8h-3.3c-0.1-0.2-0.1-0.3-0.1-0.5c0.2-1.4-0.6-2-1.8-2.4c-2.7-1-5.6-0.1-7.3,2.2
	c-1.7,2.6-1.6,6,0.2,8.6c1.7,2.4,4.9,3.2,7.6,2.2c0.6-0.2,1.2-0.5,1.8-0.9c0.6-0.3,1.1-0.8,1.7-1.3l2,2.7c-1.8,1.9-4.2,3.1-6.8,3.4
	c-4.4,0.7-8.7-1.6-10.6-5.7c-2-4.2-1.1-9.1,2.2-12.3c3.7-3.5,9.4-3.1,12.7-1.1c1.2,0.7,1.9,1.9,1.8,3.3
	C76.5,83.5,76.5,84.1,76.5,84.8z"/>
<path class="st0" d="M111.2,84.1h3.6V85c0,3,0,6,0,8.9c0,1.3,0,1.3,1.3,1.4c0.1,0,0.2,0,0.4,0.1v3c-1.3,0-2.6,0.1-3.9,0
	c-0.9-0.1-1.2-0.6-1.3-2.2c-1.2,1.8-3.3,2.8-5.4,2.6c-2.3,0.1-4.2-1.7-4.3-4c0,0,0,0,0,0c-0.2-1.9-0.1-3.8-0.2-5.7
	c0-1.7,0-1.7-1.7-1.9c0-0.2,0-0.3,0-0.5c0-0.8,0-1.6,0-2.5c1.4,0,2.7-0.1,4,0c0.9,0.1,1.3,0.7,1.3,1.7c0,1.9,0,3.9,0,5.8
	c0,0.3,0,0.7,0,1c0.1,1,0.1,2.1,1.2,2.6c1.1,0.5,2.5,0.2,3.3-0.6c1.1-1,1.7-2.4,1.6-3.8c0-1.9,0-3.8,0-5.6
	C111.2,84.8,111.2,84.4,111.2,84.1z"/>
<path class="st0" d="M91.9,98.8c-4.1,0.2-7.6-3-7.8-7.1c0-0.2,0-0.4,0-0.6c0-4.2,3.5-7.4,7.9-7.3c4.2-0.1,7.6,3.1,7.8,7.3
	c0,0.1,0,0.2,0,0.3C99.8,95.6,96.4,98.8,91.9,98.8z M96.1,91.2c-0.1-2.3-2.1-4.1-4.4-4c-2.3,0.1-4.1,2.1-4,4.4c0.1,2.2,1.9,4,4.2,4
	c2.3,0,4.2-1.9,4.2-4.2C96.1,91.4,96.1,91.3,96.1,91.2z"/>
<path class="st0" d="M28.6,72.4l1.7-2c1.1,1.2,2.5,2,4.1,2.3c0.9,0.1,1.8,0,2.6-0.4c1.3-0.5,1.9-2,1.4-3.3c-0.2-0.5-0.5-0.8-0.9-1.1
	c-1-0.6-2-1.2-3.1-1.8c-1.3-0.6-2.5-1.4-3.7-2.2c-2-1.7-2.3-4.8-0.6-6.8c0.4-0.4,0.8-0.8,1.3-1.1c2.4-1.5,5.5-1.5,7.9-0.1
	c1.6,0.8,2,2.1,1.7,4.3h-2.5c0-0.9,0-1.8-1.1-2.3c-1.2-0.5-2.5-0.6-3.7-0.1c-1.2,0.4-1.9,1.7-1.6,2.9c0.2,0.5,0.5,1,1,1.3
	c1,0.6,2.1,1.2,3.2,1.7c1.1,0.5,2.1,1.1,3.1,1.7c2.4,1.8,2.9,5.2,1.1,7.6c-0.6,0.7-1.3,1.3-2.2,1.7C34.9,76.1,31,75.1,28.6,72.4z"/>
<path class="st0" d="M99.5,64.6h-2.3c-0.4-2.3,0.3-3.3,2.4-3.8c1.5-0.4,3.2-0.4,4.7-0.1c2,0.3,3.5,2.1,3.5,4.2
	c0.1,2.1,0.1,4.2,0.1,6.3c0,1.4,0,1.4,1.4,1.5c0.1,0,0.2,0.1,0.3,0.1v2.4c-0.8,0-1.5,0-2.3,0c-1.5,0-1.9-0.4-2.1-2l-0.6,0.7
	c-1.9,2-5,2.2-7.2,0.5c-1.7-1.5-2-4.1-0.5-5.8c0.3-0.4,0.8-0.7,1.2-1c1.8-0.9,3.8-1.3,5.8-1.3c0.4,0,0.7,0,1.2,0
	c0.1-1.2,0-2.3-1.1-3c-1.2-0.7-2.6-0.7-3.8,0C99.9,63.3,99.8,64,99.5,64.6z M105,68.2c-1.7-0.1-3.4,0.1-4.9,0.7
	c-0.9,0.3-1.4,1.2-1.3,2.1c0.1,0.9,0.7,1.7,1.7,1.9C102.9,73.8,105.6,71.1,105,68.2z"/>
<path class="st0" d="M50.2,75.4c-4.1,0-7.5-3.4-7.4-7.5c0-4.1,3.4-7.5,7.5-7.4c4,0,7.2,3.2,7.4,7.1c0.2,4.1-3,7.7-7.2,7.8
	C50.4,75.4,50.3,75.4,50.2,75.4z M54.8,67.8c0-2.7-2.2-4.8-4.9-4.7c-2.7,0-4.8,2.2-4.7,4.9c0,2.7,2.2,4.8,4.9,4.7
	C52.7,72.7,54.9,70.5,54.8,67.8z"/>
<path class="st0" d="M131.8,68.3h-10.2c0,1.6,0.8,3.1,2.2,3.9c2.4,1.4,4.6,0.7,6.7-0.9l1.2,1.9c-2.8,3.2-7.7,3.5-10.9,0.7
	c-3.2-2.8-3.5-7.7-0.7-10.9c0.2-0.3,0.5-0.5,0.8-0.8c1.9-1.8,4.6-2.4,7-1.5C131,62,132.6,65.2,131.8,68.3z M129,66.2
	c0.2-1.8-1.1-3.3-2.9-3.5c-0.1,0-0.1,0-0.2,0c-2.1-0.1-3.9,1.4-4.1,3.5H129z"/>
<path class="st0" d="M84,98.4c-1.3,0-2.6,0-3.8,0c-0.9,0-1.4-0.6-1.4-1.6s0-2,0-2.9c0-3.7,0-7.3,0-11c0-1.3,0-1.3-1.3-1.3
	c-0.1,0-0.3,0-0.4-0.1v-3c1.4,0,2.8-0.1,4.2,0.1c0.4,0,0.8,0.6,1,1.1c0.1,0.4,0.2,0.8,0.1,1.3c0,4.2,0,8.4,0,12.6
	c0,1.7,0,1.7,1.7,1.9L84,98.4z"/>
<path class="st0" d="M109.4,63.1v-2.3c1.1,0,2.1,0,3.1,0c0.8,0,1.4,0.7,1.4,1.4c0,0,0,0,0,0c0,0.4,0,0.8,0.1,1.3
	c1.2-1.9,2.6-3.1,5.1-2.9v2.7c-1.4-0.2-2.7,0.3-3.6,1.3c-1,1.2-1.5,2.8-1.4,4.4c0,2,0,3.9,0,6h-2.8v-1c0-3,0-6,0-9
	C111.2,63.2,111.4,63.2,109.4,63.1z"/>
</svg>
