<svg id="Isolation_Mode" data-name="Isolation Mode" xmlns="http://www.w3.org/2000/svg" viewBox="0 0 161.71 106.54"><defs><style>.cls-1{fill:#e55d33;}</style></defs><title>logo</title><path class="cls-1" d="M161.67,99.27h-11.9c-1.57,0-3.13,0-4.7,0-2.3-.07-3.66-1.94-2.9-3.93a2.8,2.8,0,0,1,2.93-1.78c2.4,0,4.79,0,7.19.05H156V92.48q0-13.74,0-27.47a28.28,28.28,0,0,0-20.94-27.12l-.62-.17c-2-.52-2-.52-1.93-2.57a27.43,27.43,0,0,0-6.77-19.52,28.29,28.29,0,0,0-45.48,3.22l-1.72,2.69c-1.71-1.37-3.28-2.8-5-4A28.25,28.25,0,0,0,29.68,35.47a2.46,2.46,0,0,1-2.15,2.25C15.8,40.84,8.45,48.38,6.19,60.29A28.05,28.05,0,0,0,28.84,93.07a69,69,0,0,0,12.68.42l-2.66-2.71a2.8,2.8,0,0,1-.77-2.88,2.68,2.68,0,0,1,4.37-1.29c2.67,2.54,5.27,5.16,7.84,7.8a2.55,2.55,0,0,1,0,3.6q-3.85,4-7.81,7.83a2.67,2.67,0,0,1-3.81-.24,2.64,2.64,0,0,1,.19-3.72c.81-.83,1.58-1.71,2.4-2.59l-.84,0c-3,0-6,0-8.93-.16A33.82,33.82,0,0,1,.24,69.2,33.87,33.87,0,0,1,23.37,33a1.9,1.9,0,0,0,1.38-1.45C29,18.13,38.06,9.92,51.88,7.33c8.91-1.67,17.18.4,24.72,5.39l.54.36a.25.25,0,0,0,.09,0c1.26-1.32,2.46-2.72,3.8-4A33.06,33.06,0,0,1,101.6.1a33.92,33.92,0,0,1,35.59,25.6,56.06,56.06,0,0,1,1,6.53.9.9,0,0,0,.68.89,33.59,33.59,0,0,1,20.94,20.95,30.5,30.5,0,0,1,1.86,10.46q0,17,0,34C161.71,98.76,161.69,99,161.67,99.27Z"/><path class="cls-1" d="M80.14,71.94c1.06-3.44,2-6.69,3.06-9.93.13-.41.34-1.05.61-1.11a7.78,7.78,0,0,1,2.2,0c.11,0,.23.33.29.53,1.07,3.42,2.14,6.84,3.26,10.43.13-.44.23-.75.33-1.06.81-2.73,1.61-5.47,2.43-8.2.45-1.52.83-1.79,2.44-1.79h1.43V63.1c-.89,0-1.18.61-1.43,1.39-1.06,3.3-2.18,6.57-3.23,9.87a.9.9,0,0,1-1,.75c-2.32,0-2.32,0-3-2.16-.86-2.65-1.71-5.31-2.61-8.1a6.09,6.09,0,0,0-.26.58c-1,3-1.92,5.95-2.84,8.94a.9.9,0,0,1-1,.74c-2.33,0-2.34,0-3.08-2.23-.94-2.85-1.91-5.7-2.79-8.57A1.53,1.53,0,0,0,73.08,63c-.91.06-1.83,0-2.81,0,0,2.5-.11,4.92,0,7.33.1,1.63,1.32,2.32,3.49,2.29V75c-2.55.63-6.1-.57-6.3-4.21-.12-2.27-.08-4.55-.06-6.82,0-.71-.17-1-.92-.95-1.1.06-2.21,0-3.32,0-.65,0-.84.2-.83.84,0,3.38,0,6.76,0,10.14,0,.33,0,.66,0,1H59.58v-12H57.9V60.83h1.62c.08-1.93.33-3.75,2.07-4.89a6.42,6.42,0,0,1,4.4-.82v2.33c-1.08,0-2.28,0-3,1a10.3,10.3,0,0,0-.85,2.3h5.27V57h2.76v3.83h4.53c1.84,0,2.15.23,2.67,2Z"/><path class="cls-1" d="M132.59,95.36v3c-1.29,0-2.55,0-3.8,0-.94,0-1.26-.74-1.38-1.68a5.48,5.48,0,0,1-5.5,2,6,6,0,0,1-5-4.74,9.87,9.87,0,0,1,0-5.37c1.26-4.62,6.28-6.34,10.28-3.39,0-1.12,0-2.14,0-3.15,0-.16-.35-.38-.57-.43a5,5,0,0,0-1.06,0V78.48c1.34,0,2.68-.05,4,0,.87,0,1.3.76,1.31,1.91q0,6.64,0,13.28a4.93,4.93,0,0,1,0,.55c-.09.78.19,1.18,1,1.07A3.4,3.4,0,0,1,132.59,95.36Zm-12.33-4.31a19.51,19.51,0,0,0,.32,2,3.33,3.33,0,0,0,6.5.07,6,6,0,0,0-.15-4.05,3.27,3.27,0,0,0-6.15-.06A14.6,14.6,0,0,0,120.26,91.06Z"/><path class="cls-1" d="M76.5,84.84H73.2a1.62,1.62,0,0,1-.11-.52c.17-1.36-.63-2-1.84-2.36a6.42,6.42,0,0,0-7.34,2.15,7.54,7.54,0,0,0,.2,8.55,6.43,6.43,0,0,0,7.57,2.15,9.67,9.67,0,0,0,1.81-.89c.57-.35,1.08-.81,1.69-1.28l2,2.65a11,11,0,0,1-6.81,3.4A10,10,0,0,1,59.76,93,10.73,10.73,0,0,1,62,80.67c3.73-3.46,9.39-3.08,12.7-1.05a3.47,3.47,0,0,1,1.8,3.3C76.48,83.53,76.5,84.14,76.5,84.84Z"/><path class="cls-1" d="M111.24,84.07h3.64V85q0,4.47,0,8.94c0,1.3,0,1.3,1.29,1.36.12,0,.24,0,.42.06v3c-1.31,0-2.63.06-3.93,0-.89-.06-1.19-.62-1.35-2.19a5.82,5.82,0,0,1-5.4,2.59,4.17,4.17,0,0,1-4.3-4.06c-.16-1.89-.13-3.8-.15-5.7,0-1.7,0-1.71-1.66-1.93,0-.17,0-.34,0-.52,0-.79,0-1.59,0-2.46,1.37,0,2.69-.07,4,0,.92.07,1.33.66,1.34,1.68,0,1.93,0,3.87,0,5.8,0,.34,0,.68,0,1,.05,1,.05,2.12,1.16,2.61a3.09,3.09,0,0,0,3.35-.62,4.76,4.76,0,0,0,1.62-3.85c0-1.87,0-3.75,0-5.62C111.24,84.78,111.24,84.45,111.24,84.07Z"/><path class="cls-1" d="M91.86,98.75A7.46,7.46,0,0,1,84.08,91c0-4.18,3.49-7.37,7.93-7.33a7.53,7.53,0,0,1,7.8,7.57C99.8,95.6,96.41,98.79,91.86,98.75Zm4.26-7.51a4.19,4.19,0,1,0-4.19,4.39A4.19,4.19,0,0,0,96.12,91.24Z"/><path class="cls-1" d="M28.58,72.37l1.68-2a7,7,0,0,0,4.12,2.28A5.54,5.54,0,0,0,37,72.28a2.54,2.54,0,0,0,.45-4.44,30.72,30.72,0,0,0-3.11-1.76,22.53,22.53,0,0,1-3.68-2.23,4.85,4.85,0,0,1,.72-7.92,7.67,7.67,0,0,1,7.9-.1c1.6.83,2,2.09,1.66,4.31H38.44c0-.91-.05-1.82-1.11-2.26a4.64,4.64,0,0,0-3.66-.08A2.33,2.33,0,0,0,33.08,62a27.72,27.72,0,0,0,3.15,1.68,23.33,23.33,0,0,1,3.12,1.74,5.43,5.43,0,0,1-1.1,9.31A8.59,8.59,0,0,1,28.58,72.37Z"/><path class="cls-1" d="M99.49,64.58H97.22c-.39-2.26.26-3.27,2.39-3.82a9.5,9.5,0,0,1,4.73-.06,4.22,4.22,0,0,1,3.51,4.17c.12,2.08.07,4.17.08,6.26,0,1.41,0,1.41,1.45,1.51a1.57,1.57,0,0,1,.29.09V75.1c-.78,0-1.54,0-2.3,0-1.53,0-1.92-.41-2.14-2l-.63.7a5.39,5.39,0,0,1-7.18.48,4.15,4.15,0,0,1,.73-6.83,12.44,12.44,0,0,1,5.78-1.28c.36,0,.73,0,1.15,0,.09-1.21,0-2.33-1.07-3a3.74,3.74,0,0,0-3.77,0C99.88,63.32,99.78,64,99.49,64.58ZM105,68.22a10.91,10.91,0,0,0-4.92.7,2.07,2.07,0,0,0-1.29,2.14A2.17,2.17,0,0,0,100.44,73C102.95,73.78,105.56,71.13,105,68.22Z"/><path class="cls-1" d="M50.17,75.39a7.48,7.48,0,1,1,7.52-7.84A7.51,7.51,0,0,1,50.17,75.39Zm4.64-7.55a4.82,4.82,0,1,0-9.64.15,4.82,4.82,0,1,0,9.64-.15Z"/><path class="cls-1" d="M131.81,68.31H121.61a4.51,4.51,0,0,0,2.22,3.93c2.41,1.39,4.6.66,6.74-.92l1.2,1.92A7.7,7.7,0,1,1,121,62.29a6.85,6.85,0,0,1,7-1.5A6.31,6.31,0,0,1,131.81,68.31ZM129,66.21a3.23,3.23,0,0,0-3.14-3.52,3.89,3.89,0,0,0-4.07,3.52Z"/><path class="cls-1" d="M84,98.38c-1.31,0-2.57,0-3.82,0-.93,0-1.4-.55-1.44-1.56s0-2,0-2.95q0-5.48,0-11c0-1.28,0-1.28-1.32-1.35a3.65,3.65,0,0,1-.39-.07v-3c1.4,0,2.83-.07,4.24.05.37,0,.77.64,1,1.06a3.06,3.06,0,0,1,.11,1.27q0,6.31,0,12.62c0,1.65,0,1.65,1.66,1.86Z"/><path class="cls-1" d="M109.45,63.11V60.8c1.06,0,2.07,0,3.07,0a1.4,1.4,0,0,1,1.37,1.46c0,.39,0,.79.08,1.26,1.15-1.89,2.64-3.14,5.05-2.89v2.73a4,4,0,0,0-3.61,1.33A6.38,6.38,0,0,0,114,69.06c0,2,0,3.93,0,6h-2.77v-1c0-3,0-6,0-9C111.18,63.15,111.41,63.24,109.45,63.11Z"/></svg>