<?xml version="1.0" encoding="utf-8"?>
<!-- Generator: Adobe Illustrator 20.1.0, SVG Export Plug-In . SVG Version: 6.00 Build 0)  -->
<svg version="1.1" id="Layer_1" xmlns="http://www.w3.org/2000/svg" xmlns:xlink="http://www.w3.org/1999/xlink" x="0px" y="0px"
	 viewBox="0 0 112 111" style="enable-background:new 0 0 112 111;" xml:space="preserve">
<style type="text/css">
	.st0{fill:none;}
	.st1{fill:#D3D3C6;}
</style>
<g>
	<path class="st0" d="M37.5,19.2c-13.3,0-24.6,2.6-30.4,7.8C3.1,30.7,2,35.6,4,41.5c4.6,13.9,19.2,14.6,30.6,12.8
		c15-2.4,33.4-10.6,49.3-22c1-0.7,2-1.5,3-2.2c-0.9-0.5-1.9-0.9-2.9-1.3C69.6,22.4,52.4,19.2,37.5,19.2z"/>
	<path class="st1" d="M92.4,29.7C104.1,20,112,9.6,112,1.5c0-0.8-0.7-1.5-1.5-1.5c-0.8,0-1.5,0.7-1.5,1.5c0,6.9-7.3,16.8-19.5,26.6
		c-1.4-0.7-2.8-1.4-4.3-2C59.8,14.8,19.3,11.9,5.1,24.8c-5,4.5-6.3,10.6-4,17.7c4.2,12.6,15.9,17.7,34,14.8
		c18.3-3,39.4-13.5,54.8-25.6C102.3,38.5,109,47,109,56c0,17.3-19,18.5-39.2,19.9c-16,1-32.5,2.1-39.6,11.9
		c-3.2,4.4-4.2,10-3.2,17.2l-7-7c-0.6-0.6-1.5-0.6-2.1,0c-0.6,0.6-0.6,1.5,0,2.1l10.5,10.5c0,0,0.1,0.1,0.1,0.1c0,0,0,0,0.1,0.1
		c0.1,0.1,0.2,0.2,0.4,0.2c0,0,0,0,0.1,0c0.1,0,0.3,0.1,0.4,0.1c0,0,0,0,0,0c0,0,0,0,0,0c0,0,0,0,0,0c0,0,0.1,0,0.1,0
		c0.1,0,0.1,0,0.2,0c0,0,0.1,0,0.1,0c0,0,0,0,0,0c0,0,0.1,0,0.1,0c0.1,0,0.1,0,0.2-0.1c0,0,0.1,0,0.1-0.1c0.1,0,0.1-0.1,0.1-0.1
		c0,0,0.1-0.1,0.1-0.1c0,0,0.1-0.1,0.1-0.1c0,0,0,0,0,0l9-12c0.5-0.7,0.4-1.6-0.3-2.1c-0.7-0.5-1.6-0.4-2.1,0.3l-7,9.4
		c-1.3-7.1-0.5-12.5,2.4-16.5c6.3-8.6,22.1-9.7,37.4-10.6c20.6-1.3,42-2.7,42-22.8C112,46.1,105.1,36.9,92.4,29.7z M83.9,32.3
		C68,43.7,49.6,51.9,34.6,54.3C23.2,56.2,8.6,55.5,4,41.5C2,35.6,3.1,30.7,7.1,27c5.8-5.3,17.1-7.8,30.4-7.8
		c14.8,0,32.1,3.2,46.5,9.6c1,0.4,2,0.9,2.9,1.3C85.9,30.9,84.9,31.6,83.9,32.3z"/>
</g>
</svg>
