<?xml version="1.0" encoding="utf-8"?>
<!-- Generator: Adobe Illustrator 20.1.0, SVG Export Plug-In . SVG Version: 6.00 Build 0)  -->
<svg version="1.1" id="Layer_1" xmlns="http://www.w3.org/2000/svg" xmlns:xlink="http://www.w3.org/1999/xlink" x="0px" y="0px"
	 viewBox="0 0 116 136.6" style="enable-background:new 0 0 116 136.6;" xml:space="preserve">
<style type="text/css">
	.st0{fill:none;}
	.st1{fill:#D3D3C6;}
</style>
<g>
	<path class="st0" d="M105.6,85.8C96.5,76.7,79.4,70,61,68.3c-5-0.4-9.7-0.5-14.2-0.2c2.4,29.3,14.8,57,29.8,63.6
		c8,3.6,16.3,1.1,24.6-7.2C115.3,110.4,116.9,97,105.6,85.8z"/>
	<path class="st1" d="M107.8,83.7c-9.6-9.6-27.4-16.6-46.5-18.3c-5.1-0.5-10-0.5-14.7-0.2c-0.2-4.2-0.3-8.4-0.1-12.6
		C47.7,26.4,57.8,8.4,74.1,2.9C74.9,2.7,75.3,1.8,75,1c-0.3-0.8-1.1-1.2-1.9-0.9C55.6,5.9,44.8,25,43.5,52.4
		c-0.2,4.2-0.2,8.6,0.1,13c-12.1,1.3-22.2,5.2-28.3,11.4c-23.2,23.2-10,46.6-3.2,55.6l-10.2-2.9c-0.8-0.2-1.6,0.2-1.9,1
		c-0.2,0.5,0,1.1,0.4,1.5c0.2,0.2,0.4,0.3,0.6,0.4l14.8,4.2c0,0,0,0,0.1,0c0.1,0,0.1,0,0.2,0c0,0,0.1,0,0.1,0c0.1,0,0.1,0,0.2,0
		c0,0,0.1,0,0.1,0c0.1,0,0.1,0,0.2-0.1c0,0,0.1,0,0.1,0c0.1,0,0.2-0.1,0.3-0.1c0,0,0,0,0,0c0,0,0,0,0.1,0c0.1,0,0.1-0.1,0.2-0.1
		c0,0,0,0,0,0c0,0,0.1-0.1,0.1-0.1c0,0,0.1-0.1,0.1-0.1c0,0,0-0.1,0.1-0.1c0-0.1,0.1-0.1,0.1-0.2c0,0,0-0.1,0-0.1c0-0.1,0-0.1,0-0.2
		c0,0,0,0,0,0l2.1-17c0.1-0.8-0.5-1.6-1.3-1.7c-0.8-0.1-1.6,0.5-1.7,1.3l-1.7,13.7c-6-7.3-20.7-29.9,2.1-52.7
		c5.7-5.7,15-9.3,26.4-10.5c1.9,23.1,9.9,47.2,22.3,59.5c2.8,2.8,5.9,5.1,9.2,6.5c6.4,2.8,16.4,3.8,28-7.8
		C123.9,106,115,90.9,107.8,83.7z M76.6,131.7c-15-6.6-27.4-34.3-29.8-63.6c4.5-0.3,9.3-0.2,14.2,0.2c18.4,1.7,35.5,8.3,44.6,17.5
		c11.2,11.2,9.7,24.6-4.4,38.7C92.9,132.8,84.6,135.3,76.6,131.7z"/>
</g>
</svg>
