<?xml version="1.0" encoding="utf-8"?>
<!-- Generator: Adobe Illustrator 20.1.0, SVG Export Plug-In . SVG Version: 6.00 Build 0)  -->
<svg version="1.1" id="Layer_1" xmlns="http://www.w3.org/2000/svg" xmlns:xlink="http://www.w3.org/1999/xlink" x="0px" y="0px"
	 viewBox="0 0 88 60" style="enable-background:new 0 0 88 60;" xml:space="preserve">
<style type="text/css">
	.st0{fill:#E1E1D7;}
</style>
<g transform="translate(0,-952.36218)">
	<path class="st0" d="M36,952.4c-13.3,0-22.9,11.1-23.1,23C5.4,977.9,0,985,0,993.4c0,10.5,8.5,19,19,19h49c11.5,0,20-8,20-18
		c0-7.6-4.8-15-12.3-17.4c-0.7-5.7-3.6-10.3-7.7-12.7c-3.9-2.3-8.5-2.8-12.8-1.5C51.3,956.9,44.6,952.4,36,952.4z M36,958.4
		c7.4,0,12.8,4.3,15.3,9.3c0.8,1.5,2.6,2.1,4,1.3c3.1-1.5,6.7-1.3,9.6,0.4c2.9,1.7,5,4.9,5,9.9c0,1.5,1.1,2.7,2.5,2.9
		c5.5,0.9,9.5,6.5,9.5,12.1c0,6.7-5.1,12-14,12H19c-7.2,0-13-5.8-13-13c0-6.3,4.5-11.6,10.5-12.8c1.5-0.3,2.6-1.7,2.4-3.2
		C18,968,25.3,958.4,36,958.4z"/>
</g>
</svg>
